<?xml version="1.0" standalone="no"?>
<!DOCTYPE svg PUBLIC "-//W3C//DTD SVG 20010904//EN"
 "http://www.w3.org/TR/2001/REC-SVG-20010904/DTD/svg10.dtd">
<svg version="1.0" xmlns="http://www.w3.org/2000/svg"
 width="500.000000pt" height="500.000000pt" viewBox="0 0 500.000000 500.000000"
 preserveAspectRatio="xMidYMid meet">

<g transform="translate(0.000000,500.000000) scale(0.100000,-0.100000)"
fill="#000000" stroke="none">
<path d="M1585 4541 c-94 -34 -133 -60 -181 -121 -26 -33 -54 -60 -63 -60 -8
0 -99 12 -201 26 -228 32 -333 30 -363 -7 -16 -20 -18 -36 -15 -104 6 -152 98
-295 233 -362 98 -49 164 -100 280 -217 70 -71 121 -112 170 -139 108 -59 109
-61 109 -256 0 -91 -8 -278 -18 -416 -17 -234 -20 -254 -47 -310 -66 -139
-109 -363 -89 -459 12 -61 53 -134 108 -196 30 -34 52 -49 93 -60 62 -18 60
-14 114 -226 l29 -110 -22 -40 c-81 -144 -87 -163 -87 -274 0 -98 2 -110 32
-173 51 -107 121 -203 202 -278 41 -38 78 -69 83 -69 4 0 8 -7 8 -15 0 -21
-26 -19 -140 10 -86 22 -108 24 -165 16 -121 -17 -173 -60 -177 -146 l-3 -50
1135 -3 c778 -2 1155 1 1200 8 162 27 310 140 387 297 l38 77 0 147 0 147 -48
94 c-62 118 -119 192 -172 224 -56 32 -67 32 -54 -3 16 -43 23 -240 10 -308
-32 -171 -188 -337 -340 -361 l-41 -7 0 74 c0 117 -19 346 -35 439 -19 104
-56 219 -105 325 -98 214 -231 385 -545 705 -388 396 -520 575 -594 810 -44
140 -50 230 -37 538 6 132 5 209 -4 275 l-13 92 33 65 c24 47 34 83 38 131 6
82 -10 115 -74 158 -52 34 -93 39 -174 20 -42 -9 -49 -8 -126 31 -154 77 -269
96 -369 61z"/>
</g>
</svg>
